<?xml version="1.0" encoding="UTF-8"?>
<svg version="1.1" xmlns="http://www.w3.org/2000/svg" width="4676" height="4676">
<path d="M0 0 C1543.08 0 3086.16 0 4676 0 C4676 1543.08 4676 3086.16 4676 4676 C3132.92 4676 1589.84 4676 0 4676 C0 3132.92 0 1589.84 0 0 Z " fill="#232323" transform="translate(0,0)"/>
<path d="M0 0 C254.76 0 509.52 0 772 0 C772 282.81 772 565.62 772 857 C881.23 857 990.46 857 1103 857 C1101.02719148 860.94561703 1099.25892392 862.99055381 1096.17341411 866.07498288 C1095.67503683 866.57591633 1095.17665955 867.07684979 1094.66317993 867.59296304 C1092.98120813 869.28109137 1091.29216349 870.96196163 1089.60310173 872.64299393 C1088.38266863 873.86490562 1087.16267466 875.08725604 1085.94308203 876.31000662 C1082.56950867 879.68974146 1079.18968796 883.06316913 1075.80887372 886.43565867 C1072.13989479 890.09778952 1068.47670173 893.76569996 1064.81278908 897.43289828 C1058.38366123 903.86618129 1051.95081089 910.29572334 1045.51554489 916.72286606 C1035.94648256 926.27988272 1026.3831348 935.84260227 1016.82097268 945.40652225 C1000.73751791 961.49260799 984.64941089 977.57403153 968.55865097 993.65280914 C952.62089557 1009.57872449 936.68520731 1025.5067036 920.75229263 1041.43746185 C920.25769734 1041.93198833 919.76310204 1042.4265148 919.25351901 1042.93602692 C914.73623404 1047.4526855 910.21897457 1051.96936959 905.7017457 1056.48608428 C894.47181441 1067.71473669 883.24156325 1078.94306914 872.01109505 1090.17118454 C871.49965289 1090.68252006 870.98821073 1091.19385559 870.46127032 1091.72068613 C845.57520694 1116.60150495 820.68545908 1141.47863706 795.79541016 1166.35546875 C787.15670496 1174.98959068 778.51801603 1183.6237289 769.87939453 1192.25793457 C769.07575547 1193.06116278 769.07575547 1193.06116278 768.25588128 1193.88061783 C743.3554075 1218.76840627 718.45754965 1243.65881103 693.56036736 1268.54989215 C691.94426276 1270.16560062 690.32815704 1271.78130796 688.71205108 1273.39701507 C678.00214264 1284.10428398 667.2922793 1294.81159802 656.58244617 1305.51894227 C635.27206307 1326.8243722 613.96141491 1348.12953699 592.65058467 1369.43451967 C591.63567974 1370.44914612 590.620775 1371.46377275 589.60587045 1372.47839957 C528.97991447 1433.08776067 468.34850498 1493.69166582 387 1575 C383.21088007 1573.42725723 380.80913347 1571.05939281 377.92501712 1568.17571545 C377.42408367 1567.67758663 376.92315021 1567.17945781 376.40703696 1566.66623418 C374.71891269 1564.98510487 373.03803998 1563.2969055 371.35700607 1561.60868835 C370.13509362 1560.38886105 368.91274323 1559.1694723 367.68999338 1557.9504844 C364.31025892 1554.57857965 360.93682933 1551.20042679 357.56434133 1547.82127644 C353.90219994 1544.15408355 350.23429272 1540.49266551 346.56710172 1536.83052349 C340.13380639 1530.4044702 333.70426507 1523.97467967 327.27713394 1517.5424614 C317.72008763 1507.97787101 308.15735856 1498.4189776 298.59347775 1488.86122182 C282.50722 1472.78490116 266.42576156 1456.7037894 250.34719086 1440.61978149 C249.85728483 1440.12970987 249.3673788 1439.63963825 248.86262713 1439.13471598 C248.37194168 1438.64386466 247.88125622 1438.15301335 247.37570151 1437.64728776 C232.43984186 1422.70638613 217.50211719 1407.76735225 202.56253815 1392.83016968 C201.56296546 1391.83075195 200.56339309 1390.83133389 199.56382105 1389.83191552 C195.54719541 1385.81591078 191.53056155 1381.79991426 187.51391572 1377.78392972 C176.28522726 1366.55707545 165.05688536 1355.32987462 153.82881546 1344.10240173 C153.06181217 1343.33543938 153.06181217 1343.33543938 152.27931387 1342.55298285 C135.98128757 1326.25577533 119.68479877 1309.95703128 103.38935471 1293.65724182 C102.59633016 1292.86400653 102.59633016 1292.86400653 101.78728492 1292.05474628 C93.20124827 1283.4664196 84.61528605 1274.87801852 76.02933012 1266.28961114 C41.96914766 1232.2197142 7.90388509 1198.15490522 -26.16601562 1164.09472656 C-34.75241704 1155.51076742 -43.33880834 1146.92679816 -51.92512894 1138.34275818 C-52.45377883 1137.81424919 -52.98242872 1137.28574019 -53.5270983 1136.74121578 C-69.8113381 1120.46128638 -86.09433782 1104.18011755 -102.37598801 1087.89759827 C-102.88689616 1087.38666295 -103.39780431 1086.87572763 -103.92419452 1086.34930942 C-115.13784901 1075.13503006 -126.35118234 1063.92042962 -137.56422588 1052.70553939 C-141.57603859 1048.69306836 -145.58786738 1044.68061342 -149.59970077 1040.66816308 C-150.59778908 1039.66991999 -151.59587606 1038.67167555 -152.59396168 1037.67342977 C-167.52959875 1022.73540273 -182.4674498 1007.79959273 -197.40680482 992.86528402 C-198.14216064 992.13017659 -198.14216064 992.13017659 -198.89237213 991.38021851 C-199.38170967 990.89104633 -199.8710472 990.40187416 -200.37521315 989.89787859 C-216.85516945 973.42343058 -233.33136314 956.9452287 -249.80328372 940.46274543 C-259.3093847 930.95075049 -268.81825765 921.44154626 -278.33106417 911.93625733 C-284.67292969 905.59885288 -291.01119503 899.25786338 -297.34645566 892.9138563 C-300.96410339 889.29141888 -304.58336295 885.6706307 -308.20697013 882.0541538 C-311.49606766 878.77146288 -314.78062058 875.48429834 -318.061434 872.1933286 C-319.24876811 871.00396142 -320.4378213 869.81630758 -321.62869251 868.63048197 C-323.23254992 867.03294462 -324.83024144 865.42949476 -326.42641377 863.82428455 C-327.31648014 862.93408267 -328.20654651 862.04388078 -329.12358458 861.12670308 C-331 859 -331 859 -331 857 C-221.77 857 -112.54 857 0 857 C0 574.19 0 291.38 0 0 Z " fill="#4AA254" transform="translate(1952,1297)"/>
<path d="M0 0 C114.18 0 228.36 0 346 0 C346 155.43 346 310.86 346 471 C874 471 1402 471 1946 471 C1946 315.57 1946 160.14 1946 0 C2060.51 0 2175.02 0 2293 0 C2293 269.94 2293 539.88 2293 818 C1536.31 818 779.62 818 0 818 C0 548.06 0 278.12 0 0 Z " fill="#717274" transform="translate(1192,2561)"/>
<path d="M0 0 C0.33 0 0.66 0 1 0 C1 166.98 1 333.96 1 506 C-594.32 506 -1189.64 506 -1803 506 C-1803 505.67 -1803 505.34 -1803 505 C-1802.39361694 504.97573944 -1801.78723389 504.95147888 -1801.16247559 504.92648315 C-1731.8211027 502.12606603 -1662.6581599 497.07223666 -1593.5 491.375 C-1592.34902958 491.2804528 -1591.19805916 491.18590561 -1590.01221085 491.08849335 C-1562.21939528 488.80477047 -1534.45298335 486.36111984 -1506.71466064 483.48748779 C-1501.97819235 482.99681674 -1497.24088257 482.51463379 -1492.50341797 482.03369141 C-1483.06373335 481.07420239 -1473.62527307 480.10310574 -1464.1875 479.125 C-1463.3624786 479.0394989 -1462.5374572 478.9539978 -1461.68743515 478.86590576 C-1434.67280516 476.06388411 -1407.68456194 473.10017203 -1380.72363281 469.81689453 C-1373.71988272 468.96427667 -1366.71454 468.12508013 -1359.70920372 467.28562737 C-1319.66221218 462.4847901 -1279.66263973 457.51907771 -1239.76513672 451.58569336 C-1229.03406441 449.99459466 -1218.29551197 448.49981019 -1207.5390625 447.08984375 C-1192.31219365 445.08548128 -1177.134647 442.80458733 -1161.95928574 440.448349 C-1159.83233551 440.11838118 -1157.70520988 439.78956578 -1155.57803345 439.46105957 C-1135.40207316 436.34432839 -1115.24485825 433.13470023 -1095.12060547 429.69873047 C-1090.55285329 428.92134976 -1085.98162965 428.16529595 -1081.41015625 427.41015625 C-1079.77905133 427.14030795 -1078.14794781 426.87045123 -1076.5168457 426.60058594 C-1074.1857736 426.21499462 -1071.85465171 425.82972848 -1069.52328491 425.44592285 C-1060.78452733 424.00618758 -1052.07033343 422.4755818 -1043.36865234 420.82397461 C-1038.37372636 419.8775107 -1033.37248595 418.96625807 -1028.37109375 418.0546875 C-974.05196925 408.14109905 -919.72699558 398.09352908 -865.87158203 385.87597656 C-861.38345746 384.86050229 -856.89151006 383.8631792 -852.3984375 382.86987305 C-847.35080661 381.75372365 -842.30508919 380.62900656 -837.25946045 379.50384521 C-835.62426835 379.13920785 -833.98905205 378.77467904 -832.3538208 378.41021729 C-799.36899895 371.05734929 -766.50160871 363.46654772 -733.77197266 355.04492188 C-732.00813871 354.59114315 -730.24430408 354.13736709 -728.48046875 353.68359375 C-727.61477264 353.46075211 -726.74907654 353.23791046 -725.85714722 353.00831604 C-718.88123646 351.21660578 -711.8952792 349.46660303 -704.90092468 347.74827576 C-699.27069335 346.3543414 -693.69455642 344.80612955 -688.125 343.1875 C-686.68229736 342.7694812 -686.68229736 342.7694812 -685.21044922 342.34301758 C-684.41654785 342.11251709 -683.62264648 341.8820166 -682.8046875 341.64453125 C-677.52985057 340.13209529 -672.22953628 338.72937749 -666.92163086 337.33813477 C-633.34196642 328.52958525 -600.12088193 318.38666093 -567 308 C-565.58044006 307.55527344 -565.58044006 307.55527344 -564.13220215 307.1015625 C-533.74804994 297.57516576 -503.56771382 287.56148153 -473.56018066 276.90765381 C-471.12426567 276.04405557 -468.68696576 275.18451614 -466.24902344 274.32666016 C-429.69728551 261.45577049 -393.60807989 247.28607787 -358 232 C-356.73627188 231.4600371 -355.47243551 230.9203275 -354.20849609 230.38085938 C-316.03490793 214.07755925 -278.64021009 196.15782952 -241.71826172 177.20043945 C-240.24014699 176.44218579 -238.76130519 175.68534777 -237.28173828 174.92993164 C-226.70904569 169.53172966 -216.29371115 163.91308595 -206 158 C-205.4016333 157.6565152 -204.8032666 157.3130304 -204.18676758 156.95913696 C-200.11359099 154.6164146 -196.05317866 152.25215336 -192 149.875 C-191.0745639 149.3322493 -191.0745639 149.3322493 -190.13043213 148.77853394 C-155.5813702 128.48635265 -122.28243401 106.37056887 -90.52636719 81.93554688 C-88.16500509 80.12641673 -85.79270707 78.33319246 -83.4140625 76.546875 C-71.20926735 67.36072064 -59.73802872 57.47253442 -48.44140625 47.1953125 C-46.37474762 45.33697306 -44.28846237 43.50733085 -42.19140625 41.68359375 C-27.7344954 29.05294303 -13.34983997 15.72644147 -1 1 C-0.67 0.67 -0.34 0.34 0 0 Z " fill="#616161" transform="translate(3483,2872)"/>
<path d="M0 0 C-1.57080596 3.78142734 -3.92826388 6.17767356 -6.8073498 9.05574679 C-7.3036438 9.55459696 -7.7999378 10.05344714 -8.31127101 10.56741398 C-9.98614204 12.24844132 -11.66808522 13.92221048 -13.35004616 15.59614182 C-14.56536297 16.81293723 -15.78024066 18.03017137 -16.994717 19.24780566 C-20.35408491 22.61333494 -23.7196999 25.97255707 -27.08630866 29.33084105 C-30.73988857 32.9775728 -34.38768251 36.63008422 -38.03619611 40.28188348 C-44.43828685 46.68812934 -50.84409998 53.09063427 -57.25232887 59.49073982 C-66.78118748 69.0075527 -76.30433142 78.53006849 -85.82628979 88.05378472 C-101.84212783 104.07225371 -117.86261807 120.08606052 -133.88576126 136.09722137 C-149.75653059 151.95615063 -165.62523275 167.81714366 -181.49116135 183.68091583 C-181.98367822 184.17336388 -182.4761951 184.66581194 -182.98363673 185.17318266 C-187.48193922 189.67085876 -191.98021621 194.16856037 -196.4784626 198.66629258 C-207.66120033 209.84775143 -218.84425793 221.02889032 -230.02753258 232.20981216 C-230.79147177 232.9735914 -230.79147177 232.9735914 -231.57084408 233.75280053 C-256.3522899 258.52900179 -281.1374202 283.30151634 -305.92285156 308.07373047 C-314.52524085 316.67153648 -323.12761385 325.26935878 -331.72991943 333.86724854 C-332.26342657 334.40048177 -332.7969337 334.93371501 -333.34660772 335.48310682 C-358.14242919 360.26624294 -382.93563471 385.05199539 -407.72816469 409.8384242 C-409.33747725 411.44734064 -410.94679095 413.05625594 -412.55610487 414.66517102 C-423.22100312 425.32742974 -433.88585626 435.98973357 -444.55067919 446.65206762 C-465.77149905 467.86793433 -486.99258399 489.08353589 -508.213851 510.29895534 C-509.22449045 511.30931631 -510.23512972 512.31967747 -511.2457688 513.33003881 C-572.29315933 574.36064857 -633.34611317 635.38569255 -713 715 C-716.32813842 713.41914001 -718.54388881 711.70740079 -721.16227341 709.09220219 C-721.98883556 708.27147223 -722.81539772 707.45074226 -723.66700721 706.6051417 C-725.02108943 705.24539049 -725.02108943 705.24539049 -726.40252686 703.85816956 C-727.37488585 702.88883063 -728.3476786 701.91992664 -729.32086778 700.9514212 C-731.9957273 698.28686854 -734.66429218 695.61608817 -737.33186507 692.94424331 C-740.20896361 690.06468251 -743.09178654 687.19086242 -745.97386169 684.31628418 C-751.61921033 678.68369728 -757.25905482 673.04563001 -762.89685598 667.40548963 C-767.47707084 662.82349354 -772.05904445 658.24326343 -776.64228058 653.66428947 C-777.29394851 653.01321673 -777.94561644 652.36214399 -778.61703189 651.69134177 C-779.94075954 650.36882582 -781.26448841 649.04631109 -782.58821848 647.72379755 C-795.00629076 635.31660594 -807.41783069 622.90289555 -819.8274155 610.48721569 C-831.19178704 599.11767127 -842.56435763 587.7563687 -853.94081292 576.39891649 C-865.61288421 564.74619333 -877.2794172 553.08795214 -888.93993688 541.42366928 C-895.49029427 534.87139565 -902.04285802 528.32136485 -908.60121918 521.77710152 C-914.18254346 516.20765332 -919.75864274 510.63303904 -925.32795373 505.0515768 C-928.17173437 502.2018816 -931.01791691 499.35469628 -933.87061119 496.51392174 C-936.4786103 493.91669403 -939.07966879 491.31272496 -941.67521611 488.70305514 C-943.06778055 487.30654779 -944.46777756 485.91746444 -945.86796641 484.52860171 C-946.68409758 483.705264 -947.50022874 482.88192629 -948.34109116 482.03363895 C-949.05279709 481.32198804 -949.76450302 480.61033713 -950.49777579 479.87712103 C-952 478 -952 478 -952 475 C-950.89116455 474.61368408 -949.7823291 474.22736816 -948.63989258 473.8293457 C-938.3826615 470.25527429 -928.1266837 466.67763087 -917.87194824 463.09640503 C-912.35980866 461.1717135 -906.84651938 459.25038862 -901.33183289 457.33300781 C-882.4673432 450.77123812 -863.69734231 444.0254816 -845.07299805 436.80340576 C-842.83636365 435.93658152 -840.59888587 435.07195739 -838.36132812 434.20751953 C-809.03233261 422.87000178 -779.75174134 411.36657603 -750.8203125 399.04296875 C-747.05349453 397.43960253 -743.2746071 395.86698155 -739.4921875 394.30078125 C-704.75489622 379.88753647 -670.48153724 364.39172725 -636.21337891 348.90332031 C-632.51263572 347.23080589 -628.80935102 345.56399008 -625.10546875 343.8984375 C-616.60160159 340.06615991 -608.18725652 336.1423038 -599.875 331.90625 C-594.69260952 329.31505476 -589.39928461 326.95905162 -584.125 324.5625 C-576.56463364 321.12506821 -569.06818713 317.61066952 -561.66455078 313.84790039 C-556.37363823 311.16395475 -551.02231612 308.62444295 -545.63500977 306.13989258 C-538.83629125 302.98263318 -532.15390176 299.59156251 -525.45489502 296.2298584 C-521.84061571 294.41916925 -518.2221601 292.61689043 -514.60385132 290.81427002 C-510.51134659 288.77516124 -506.42010289 286.73352845 -502.32885742 284.69189453 C-500.24035025 283.65015683 -498.15148479 282.6091371 -496.06225586 281.56884766 C-483.97122459 275.54752737 -471.94022248 269.43775115 -460.00512695 263.11279297 C-455.37557061 260.66210856 -450.70067259 258.31093638 -446 256 C-433.43895919 249.76287048 -420.99967811 243.31708243 -408.8125 236.375 C-403.85913731 233.55413279 -398.86812986 230.88421519 -393.75 228.375 C-365.79722243 214.6491733 -338.66179456 199.07102347 -311.46435547 183.92773438 C-306.89885148 181.38726788 -302.33025318 178.8523943 -297.76171875 176.31738281 C-293.27095773 173.82467377 -288.78190656 171.32889968 -284.29345703 168.83203125 C-282.120255 167.62315741 -279.94675853 166.41481273 -277.77294922 165.20703125 C-265.51796737 158.3943216 -253.32839561 151.48697365 -241.23413086 144.39257812 C-234.07636568 140.19743126 -226.88404942 136.06596387 -219.67401123 131.9616394 C-208.98617944 125.87728068 -198.35496834 119.7066144 -187.78125 113.42578125 C-181.52984647 109.7140104 -175.25457918 106.04336807 -168.97952271 102.37179565 C-158.6164035 96.30754714 -148.27741432 90.20875272 -138 84 C-136.27147126 82.96565157 -134.54293153 81.93132129 -132.81396484 80.89770508 C-122.83813731 74.9296629 -112.9167536 68.87212766 -102.99072266 62.82177734 C-100.10308831 61.06279551 -97.21396506 59.30629085 -94.32421875 57.55078125 C-75.85803398 46.3304763 -57.39424113 35.10169884 -39.14868164 23.52490234 C-31.48979005 18.66586675 -23.79355995 13.86706698 -16.09326172 9.07397461 C-10.20161745 5.40704509 -10.20161745 5.40704509 -4.42578125 1.5625 C-2 0 -2 0 0 0 Z " fill="#33874C" transform="translate(3052,2157)"/>
<path d="M0 0 C85.14 0 170.28 0 258 0 C254.33679383 1.83160309 250.91411425 3.07402904 247.0234375 4.3203125 C245.62520507 4.77273282 244.22718223 5.22580129 242.8293457 5.67944336 C241.73790756 6.03279251 241.73790756 6.03279251 240.62442017 6.39328003 C195.38343816 21.10984145 155.04556584 46.02714128 120.4609375 78.640625 C118.22293323 80.72304608 115.92033546 82.73121098 113.625 84.75 C110.0554511 87.95167268 106.84018777 91.27119805 103.75390625 94.9375 C101.85723281 97.16788658 99.86965259 99.29442498 97.875 101.4375 C91.43661844 108.57785161 85.73714839 116.29494997 80 124 C79.33266846 124.88945313 79.33266846 124.88945313 78.65185547 125.796875 C47.14950298 167.94773663 27.06337914 217.35251065 14 268 C13.64711914 269.32813721 13.64711914 269.32813721 13.28710938 270.68310547 C10.81080422 280.02161879 8.89327535 289.41907236 7.2109375 298.9296875 C6.97604362 300.25629898 6.97604362 300.25629898 6.73640442 301.60971069 C5.94368253 306.10797132 5.16652835 310.60831833 4.40991211 315.11279297 C4.12357705 316.77832751 3.83720188 318.44385517 3.55078125 320.109375 C3.42387909 320.89061737 3.29697693 321.67185974 3.16622925 322.47677612 C2.84399303 324.33064796 2.43077586 326.16830431 2 328 C1.34 328.33 0.68 328.66 0 329 C0 220.43 0 111.86 0 0 Z " fill="#59AC55" transform="translate(1982,1327)"/>
<path d="M0 0 C-1.49097658 3.7952131 -3.75700849 5.61042731 -7 8 C-6.44414399 4.1090079 -4.34122117 0 0 0 Z " fill="#3E8D51" transform="translate(3052,2157)"/>
</svg>
